# xmcd CD database file
#
# Track frame offsets:
#	150
#	22707
#	32763
#	48955
#
# Disc length: 1004 seconds
#
# Revision: 1
# Processed by: cddbd v1.5PL3 Copyright (c) Steve Scherf et al.
# Submitted via: CDex 1.51
#
DISCID=2103ea04
DTITLE=ガガガSP - 線香花火
DYEAR=2001
DGENRE=Punk Rock
TTITLE0=線香花火
TTITLE1=自衛隊に入ろう
TTITLE2=言葉
TTITLE3=東京
EXTD=YEAR: 2001
EXTT0=
EXTT1=
EXTT2=
EXTT3=
PLAYORDER=
